<?xml version="1.0" encoding="UTF-8"?>
<svg id="Layer_1" xmlns="http://www.w3.org/2000/svg" version="1.1" viewBox="0 0 1000 1000">
  <!-- Generator: Adobe Illustrator 29.8.4, SVG Export Plug-In . SVG Version: 2.1.1 Build 6)  -->
  <defs>
    <style>
      .st0 {
        fill: #ab3025;
        font-family: PTSerif-Bold, 'PT Serif';
        font-size: 40px;
        font-weight: 700;
      }

      .st0, .st1 {
        isolation: isolate;
      }

      .st2 {
        fill: #fdf4ea;
      }

      .st3 {
        fill: #a92f25;
      }
    </style>
  </defs>
  <rect class="st2" x="0" width="1000" height="1000"/>
  <path class="st3" d="M669.16,385.36c1.13.52.97,2.79.86,4.14-1.48,16.66-10.91,41.45-10.71,58,.2,16.48,12.84-5.97,12.97-12.59l20.34-115.84c1.96-5.14,15.22-4.65,19.16-4.92l-23.1,120.97c-2.84,15.1-.03,23.37,8.11,9.25,8.75-15.18,9.33-39.85,13.07-58.45,2.49-12.38,11.94-7.47,18.83-9.32-2.98,17.27-7.43,34.31-10.08,51.69-.66,4.35-2.94,15.52.33,18.11,2.86,2.27,10.26-10.62,11.21-14.47,1.09-4.47.67-10.03,1.32-14.6,2.45-17.23,8.58-34.55,18.76-44.07,10.9-10.2,23.47-5.86,22.06,16.49-1.07,16.99-9.88,30.25-19.98,36.38-3.57,2.16-6.35-.07-5.23,7.31,1.35,8.89,7.3,9.42,12.19,7.03,17.53-8.56,32.51-60.84,41.4-83.28,3.85-9.71,12.78-11.78,19.77-11.81-1.42,7.34-3.78,13.37-4.37,21.24-1.76,23.27,7.04,40.26,4.38,62.65,1.02,1.55,9.79-11.96,10.74-13.64,7.53-13.23,13.35-32.09,10.73-49.76,3.85,2.21,7.4,10.23,8.49,16.04,5.19,27.7-13.27,55.07-29.96,61.04,8.81,10.27,10.65,28.17.45,38.23-10.19,10.06-38.18,16.67-51.07,20.02-58.37,15.17-118.54,21.59-177.35,33.58-58.68,11.96-119.38,26.36-175.92,52.3-35.57,16.31-73.54,38.77-99.36,80.09-20.64-17.95-46.77-21.11-70.3-19.39-16.64,1.22-32.65,7.58-47.79,17.59-.36-.45,3.71-11.29,4.28-12.59,21.89-50.13,96.09-79.1,133.64-92.29,141.16-49.56,286.76-56.32,430.39-80.48,11.74-1.97,24.71-3.93,36.25-7.11,5.32-1.47,20.7-4.14,14.83-16.79-4.81-10.36-6.24-1.44-12,1.51-7.19,3.68-18.23,5.13-23.14-5.4-5.55-11.94.74-23.4,9.47-23.92,3.14-.19,6.22,1.74,9.4.99.59-13.58-1.26-26.87-3.26-40.01-4.78,9.81-8.29,20.91-12.86,30.94-9.16,20.1-25.27,50.08-43.72,41.71-6.06-2.75-8.37-8.85-11.72-16.07-6.28,15.49-22.68,33.95-29.88,9.16-.18-.63.13-2.07-1.02-1.35-1.35.85-2.79,5.26-3.92,6.81-7.91,11.03-22.07,18.49-25.37-2.92-12.47,22.71-30.57,26.48-26.83-11.93,1.36-13.95,5.71-29.11,8.29-42.69-1.56-.47-3.94-1.69-5.46-1.05-1.05.45-5.57,27.01-6.6,31.23-4.53,18.5-14.22,50.86-29.93,48.85-4.56-.58-5.93-3.51-8.43-8.8-6.24,10.52-16.42,19.64-25.08,9.3l-4.19-10.29c-4.29,7.01-10.48,17.57-17.08,19.27-23.67,6.1-6.25-47.28-4.21-62.91.19-1.45.55-2.61-.85-2.23-4.12,1.11-11.5,20.1-13.24,26.01-3.95,13.42-5.39,28.04-8.05,42.08-2.27.87-16.59,5.27-17.42,4.11,1.07-7.48,2.59-14.87,3.62-22.39.13-.97.8-2.23-.35-1.99-7.98,16.55-22.52,33.8-36.8,34.17-34.76.9-28.38-71.7-21.13-103.97,7.37-32.78,33.77-97.38,61.85-84.86,19.79,8.83,6.33,53.8-3.25,69.31-1.45,2.34-7.15,11.24-9.11,9.78-.9-.67-8.54-14.54-8.43-15.52,8.09-10.58,20.41-26.96,18.15-44.98-1.45-11.6-13.69,5.34-15.93,9.23-14.23,24.74-28.7,89.42-22.78,121,4.24,22.59,16.62,18.67,26.37,6.34,21.67-27.4,24.4-79.51,31.54-118.56.42-2.29,1.92-11.99,2.76-12.69,1.4-.27,17.76-4.26,17.75-2.41l-16.91,86.82c2.82-1.68,4.19-6.98,6.16-10.26,4.14-6.92,12.01-19.27,18.72-17.34,6.01,1.73,6.08,12.11,5.39,19.35-1,10.62-10.66,44.29-9.35,50.95,1.69,8.58,10.81-8.26,11.96-11.92,2.08-6.6,2.38-18.14,4.16-25.95,4.24-18.6,14.5-41.99,29.59-38.43,1.94.46,4.36,3.82,5.79,3.63,1.17-.15,6.73-4.46,8.74-5.37,1.07-.48,6.87-2.83,7.3-2.22l-11.02,65c-.44,5.31,1.27,8.77,4.74,6.09,5.11-3.95,12.08-31.64,14.09-40.35.84-3.64,4.4-18.18,4.42-20.7.03-2.26-5.14-6.75-5.68-13.56-.57-7.27,2.64-21.09,7.73-23.36,10.32-4.61,9.86,10.69,7.84,21,.82-.43,1.91.99,2.28.99,3.5,0,15.27-1.05,17.57,0v-.02l-.02.04ZM746.91,417.56c6.44-1.06,12.9-9.82,15.29-18.54,4.81-17.6-2.47-21.16-9.32-7.14-3.43,7.02-5.57,17.04-5.96,25.68h0ZM589.64,465.09c3.84,5.79,9.99-1.87,11.66-7.83,1.84-6.56,6.1-33.2,6.38-40.22.39-9.98-4.84-10.37-9.13-4.88-6.12,7.84-15.21,43.42-8.91,52.93ZM789.41,441.27c-2.06,3.64.65,7.27,3.39,7.57,3.75.4,5.12-2.8,7.46-6.4-2.38-3.3-8.58-5.17-10.85-1.17h0Z"/>
  <path class="st3" d="M303.84,489.76c-.8.21-2.11-.67-2.67.57-.9,1.97-2.21,14.83-3.01,18.71-2.2,10.75-6.3,25.21-12.22,32.41-7.29,8.85-12.61,6.66-17.55-4.85-3.28,7.83-5.77,18.8-12.65,21.02-15.88,5.13-13.96-31.55-12.97-45.79.79-11.44,2.26-28.95,3.99-39.91.18-1.13.18-2.02.96-2.65,3.72-3.01,11.54-3.59,15.77-5.85-.94,17.32-5.75,36.13-6.49,53.18-.33,7.57-.06,19.41,6.54,12.46,4.9-20.97,4.27-44.74,6.77-66.67l15.32-6.79c1.21,2.05-4.3,47.07-4.58,54.1-.25,6.25-.57,21.97,5.88,12.72,2.79-4,9.01-33.42,8.19-38.53-.36-2.2-2.07-5.26-2.63-7.84-1.89-8.55-.45-31.68,8.34-27.13,3,1.55,3.24,14.8,3.02,18.84-.33,6.09-3.9,12.91,2.61,12.21,1.12-14.55,11.74-33.61,21.22-36.97,11.87-4.21,16.85,6.87,14.39,23.53-1.62,10.94-7.39,22.66-14.11,27.63-5.4,3.98-11.85.82-8.16,13.13,5.05,16.85,24.39-5.53,25.67-17.13,2.25-20.31,4.71-41.33,17.66-53.52,7.06-6.64,19.64-8.22,21.77,7.18,2.13,15.39-5.9,32.16-14.24,39.25-1.7,1.45-9.45,5.57-9.58,6.34-.56,3.44,1.11,8.9,2.95,11.08,8.5,10.01,24.5-15.68,26.85-27.09.74-3.58.46-8.61.97-12.2,1.72-12.01,4.16-23.77,5.69-35.86l-13,2.92,2.01-14.54,14.28-2.49c1.59-1.54,3.5-23.79,5.18-26.39,1.89-2.92,14.96-2.77,18.22-4.37,1.03,1.68-3.66,22.82-4.55,26.33,1.79,1.09,17.47-3.7,17.58-1.44-.51,2.26-1.69,11.86-2.58,12.71-2.35,2.25-14.24,1.08-17.59,3.87-3.46,19.48-11.39,43.96-9.78,64.4.56,7.12,4.19,9.51,8.47,6.8,7.27-4.6,8.78-21.78,9.84-22.79,1.48-1.43,5.65,2.02,7.13,3.38-4.09,18.11-13.49,42.29-28.27,40.27-6.99-.96-13.51-8.54-14.39-19.38-5.51,10.44-10.83,22.43-19.66,27.1-9.67,5.12-20.18.65-23.93-14.41-6.2,17.31-24.44,37.04-36.78,21.97-2.21-2.7-5.84-12.63-5.84-16.61v-22.92l-.02.04-.02-.03ZM361.1,478.04c8.39-1.17,16.04-16.6,14.99-28.82-.28-3.27-.65-3.58-2.94-3.43-6.84.45-12.42,23.21-12.05,32.25ZM318.81,487.79c7.64-1.04,14.35-11.6,14.95-22.92.9-16.67-6.66-7.73-10.02.58-2.71,6.69-3.92,14.77-4.93,22.36h0v-.02Z"/>
  <path class="st3" d="M218.61,427.3c-.7-1.53,4.3-7.58,5.18-9.27,7.43-14.31,7.59-38.12-8.79-29.77-11.12,5.66-17.19,23.34-15.85,40.42,1.87,23.8,26.69,43.53,33.61,68.63,14.97,54.29-17.66,121.17-56.69,115.26-39.73-6.01-23.67-87.9,9.11-92.48,3.34-.46,10.7,5.73,8.3,8.78-1.42,1.81-4.08,3.59-5.76,5.79-9.35,12.24-20.61,43.71-7.06,57.37,12.88,12.99,27.12-8.96,30.33-27.37,7.87-45.16-12.42-59.32-27.13-88.64-19.89-39.64-4.77-90.03,25.31-103.35,16.79-7.44,42.07-3.14,35.66,32.02-1.72,9.42-11.07,26.42-17.15,29.98-2.7,1.57-6.24-6.61-9.07-7.35v-.02h0Z"/>
  <path class="st3" d="M787.25,344.4c-17.36-2.97-4.97-39.79,7.12-27.76,6.4,6.37,3.76,24.7.8,33.29-1.74,5.05-9.92,19.15-13.57,19.7-1.5.22-3.78-6.14-3.41-8s10.29-11.3,9.06-17.23Z"/>
  <path class="st3" d="M723.32,331.94c11.59-2.84,11.36,23.98,1.36,28.37-12.37,5.45-13.68-25.36-1.36-28.37Z"/>
  <path class="st2" d="M589.64,465.09c-6.3-9.51,2.78-45.09,8.91-52.93,4.29-5.49,9.52-5.1,9.13,4.88-.28,7.03-4.54,33.66-6.38,40.22-1.67,5.96-7.82,13.62-11.66,7.83Z"/>
  <path class="st2" d="M746.91,417.56c.39-8.64,2.53-18.67,5.96-25.68,6.85-14.02,14.12-10.46,9.32,7.14-2.37,8.71-8.84,17.47-15.29,18.54h0Z"/>
  <path class="st2" d="M789.41,441.27c2.27-4,8.46-2.13,10.85,1.17-2.34,3.59-3.71,6.8-7.46,6.4-2.74-.3-5.45-3.93-3.39-7.57h0Z"/>
  <path class="st2" d="M361.1,478.04c-.39-9.06,5.2-31.81,12.05-32.25,2.29-.15,2.67.15,2.94,3.43,1.05,12.22-6.6,27.65-14.99,28.82h0Z"/>
  <path class="st2" d="M318.81,487.79c1.02-7.59,2.22-15.65,4.93-22.36,3.36-8.31,10.91-17.25,10.02-.58-.61,11.34-7.31,21.88-14.95,22.92h0v.02Z"/>
  <g class="st1">
    <text class="st0" transform="translate(437.24 617.78)"><tspan x="0" y="0">Living Soil Cannabis</tspan></text>
  </g>
</svg>